<?xml version="1.0" encoding="UTF-8" standalone="no"?>
<!DOCTYPE svg PUBLIC "-//W3C//DTD SVG 1.1//EN" "http://www.w3.org/Graphics/SVG/1.1/DTD/svg11.dtd">
<svg version="1.1" xmlns="http://www.w3.org/2000/svg" xmlns:xlink="http://www.w3.org/1999/xlink" preserveAspectRatio="xMidYMid meet" viewBox="0 0 640 640" width="640" height="640"><defs><path d="M181.91 5.33C174.8 -1.78 163.4 -1.78 156.29 5.33C149.19 12.44 149.19 23.84 156.29 30.95C175.56 50.22 271.91 146.56 445.33 319.98C271.91 493.4 175.56 589.75 156.29 609.02C149.19 616.13 149.19 627.53 156.29 634.64C159.78 638.12 164.48 640 169.04 640C173.6 640 178.29 638.26 181.78 634.64C211.97 604.44 453.5 362.92 483.69 332.72C490.8 325.75 490.8 314.22 483.82 307.24C423.44 246.86 212.1 35.52 181.91 5.33Z" id="b3RcKJpSVM"></path></defs><g><g><g><use xlink:href="#b3RcKJpSVM" opacity="1" fill="#ffffff" fill-opacity="1"></use><g><use xlink:href="#b3RcKJpSVM" opacity="1" fill-opacity="0" stroke="#000000" stroke-width="1" stroke-opacity="0"></use></g></g></g></g></svg>